<svg width="244" height="282" viewBox="0 0 244 282" fill="none" xmlns="http://www.w3.org/2000/svg">
<path d="M75.4542 70.4169C75.4542 71.252 74.8063 71.8972 74.0455 71.8972C73.2846 71.8972 72.6367 71.252 72.6367 70.4169C72.6367 69.5818 73.2846 68.9365 74.0455 68.9365C74.8063 68.9365 75.4542 69.5818 75.4542 70.4169Z" stroke="#355576"/>
<path d="M83.1267 62.7127C83.1267 64.8238 81.4818 66.5034 79.4911 66.5034C77.5004 66.5034 75.8555 64.8238 75.8555 62.7127C75.8555 60.6015 77.5004 58.9219 79.4911 58.9219C81.4818 58.9219 83.1267 60.6015 83.1267 62.7127Z" stroke="#355576"/>
<mask id="path-3-inside-1_1203_1813" fill="white">
<path fill-rule="evenodd" clip-rule="evenodd" d="M159.026 24.2973C159.542 22.7077 159.816 21.0375 159.816 19.3146C159.816 8.64743 149.282 0 136.288 0C128.378 0 121.38 3.20362 117.115 8.11637C113.877 5.73817 109.602 4.29213 104.916 4.29213C95.6962 4.29213 88.0689 9.88888 86.8008 17.1694C86.7392 17.1688 86.6775 17.1685 86.6157 17.1685C77.9526 17.1685 70.9298 22.9335 70.9298 30.0449C70.9298 32.0557 71.4913 33.9588 72.4925 35.6543C68.4449 37.478 65.7012 41.0096 65.7012 45.0674C65.7012 50.9935 71.5535 55.7977 78.7727 55.7977C82.7471 55.7977 86.3072 54.3416 88.7046 52.0439C91.7658 56.8273 97.8767 60.0898 104.916 60.0898C110.556 60.0898 115.6 57.9953 118.957 54.7021C121.079 55.4086 123.399 55.7977 125.83 55.7977C127.649 55.7977 129.405 55.58 131.063 55.1746C135.225 58.2313 140.721 60.0898 146.745 60.0898C159.739 60.0898 170.274 51.4424 170.274 40.7752C170.274 33.8026 165.773 27.693 159.026 24.2973Z"/>
</mask>
<path d="M159.026 24.2973L158.075 23.9887L157.81 24.8048L158.576 25.1905L159.026 24.2973ZM117.115 8.11637L116.523 8.92229L117.265 9.46794L117.87 8.772L117.115 8.11637ZM86.8008 17.1694L86.7913 18.1694L87.6403 18.1774L87.786 17.341L86.8008 17.1694ZM72.4925 35.6543L72.9033 36.5661L73.9213 36.1074L73.3536 35.1459L72.4925 35.6543ZM88.7046 52.0439L89.5469 51.5049L88.8911 50.4801L88.0127 51.322L88.7046 52.0439ZM118.957 54.7021L119.273 53.7533L118.693 53.5603L118.257 53.9883L118.957 54.7021ZM131.063 55.1746L131.655 54.3686L131.279 54.0924L130.825 54.2032L131.063 55.1746ZM158.816 19.3146C158.816 20.9301 158.559 22.4963 158.075 23.9887L159.977 24.6058C160.524 22.9191 160.816 21.1448 160.816 19.3146H158.816ZM136.288 1C148.924 1 158.816 9.37525 158.816 19.3146H160.816C160.816 7.91962 149.641 -1 136.288 -1V1ZM117.87 8.772C121.927 4.09926 128.639 1 136.288 1V-1C128.118 -1 120.834 2.30798 116.36 7.46073L117.87 8.772ZM104.916 5.29213C109.399 5.29213 113.465 6.67606 116.523 8.92229L117.707 7.31044C114.29 4.80029 109.805 3.29213 104.916 3.29213V5.29213ZM87.786 17.341C88.9488 10.6649 96.0427 5.29213 104.916 5.29213V3.29213C95.3497 3.29213 87.189 9.11291 85.8157 16.9978L87.786 17.341ZM86.6157 18.1685C86.6743 18.1685 86.7329 18.1688 86.7913 18.1694L86.8103 16.1694C86.7455 16.1688 86.6806 16.1685 86.6157 16.1685V18.1685ZM71.9298 30.0449C71.9298 23.6613 78.3112 18.1685 86.6157 18.1685V16.1685C77.594 16.1685 69.9298 22.2057 69.9298 30.0449H71.9298ZM73.3536 35.1459C72.437 33.5936 71.9298 31.8648 71.9298 30.0449H69.9298C69.9298 32.2466 70.5455 34.3239 71.6314 36.1628L73.3536 35.1459ZM66.7012 45.0674C66.7012 41.4954 69.1217 38.2699 72.9033 36.5661L72.0817 34.7426C67.7681 36.6861 64.7012 40.5239 64.7012 45.0674H66.7012ZM78.7727 54.7977C71.9122 54.7977 66.7012 50.2657 66.7012 45.0674H64.7012C64.7012 51.7214 71.1949 56.7977 78.7727 56.7977V54.7977ZM88.0127 51.322C85.8153 53.428 82.5091 54.7977 78.7727 54.7977V56.7977C82.9851 56.7977 86.7991 55.2553 89.3966 52.7659L88.0127 51.322ZM104.916 59.0898C98.1679 59.0898 92.399 55.9615 89.5469 51.5049L87.8624 52.5829C91.1327 57.6932 97.5855 61.0898 104.916 61.0898V59.0898ZM118.257 53.9883C115.101 57.0839 110.315 59.0898 104.916 59.0898V61.0898C110.797 61.0898 116.099 58.9067 119.657 55.416L118.257 53.9883ZM125.83 54.7977C123.506 54.7977 121.292 54.4256 119.273 53.7533L118.641 55.6509C120.866 56.3915 123.293 56.7977 125.83 56.7977V54.7977ZM130.825 54.2032C129.246 54.5895 127.569 54.7977 125.83 54.7977V56.7977C127.728 56.7977 129.565 56.5704 131.3 56.146L130.825 54.2032ZM146.745 59.0898C140.923 59.0898 135.637 57.2934 131.655 54.3686L130.471 55.9806C134.813 59.1692 140.518 61.0898 146.745 61.0898V59.0898ZM169.274 40.7752C169.274 50.7146 159.381 59.0898 146.745 59.0898V61.0898C160.098 61.0898 171.274 52.1702 171.274 40.7752H169.274ZM158.576 25.1905C165.069 28.4581 169.274 34.265 169.274 40.7752H171.274C171.274 33.3403 166.477 26.928 159.476 23.404L158.576 25.1905Z" fill="#355576" mask="url(#path-3-inside-1_1203_1813)"/>
<path d="M85.9717 38.1543V37.4561H87.1484V31.5039H85.9717V30.8057H88.6084L92.0801 36.8555V31.5039H90.8887V30.8057H94.1309V31.5039H93.0127V38.1543H91.709L88.0811 31.8457V37.4561H89.1992V38.1543H85.9717ZM97.1289 38.2861C96.6081 38.2861 96.1556 38.1673 95.7715 37.9297C95.3906 37.6921 95.0944 37.3665 94.8828 36.9531C94.6745 36.5365 94.5703 36.0628 94.5703 35.5322C94.5703 35.0016 94.6729 34.5296 94.8779 34.1162C95.083 33.6995 95.376 33.3724 95.7568 33.1348C96.141 32.8939 96.5951 32.7734 97.1191 32.7734C97.6465 32.7734 98.099 32.8939 98.4766 33.1348C98.8574 33.3724 99.1488 33.6995 99.3506 34.1162C99.5557 34.5296 99.6582 35.0016 99.6582 35.5322C99.6582 36.0563 99.5557 36.5267 99.3506 36.9434C99.1488 37.36 98.859 37.6888 98.4814 37.9297C98.1038 38.1673 97.653 38.2861 97.1289 38.2861ZM97.1289 37.666C97.5651 37.666 97.9085 37.4772 98.1592 37.0996C98.4131 36.7188 98.54 36.2174 98.54 35.5957C98.54 35.2116 98.4961 34.8486 98.4082 34.5068C98.3203 34.165 98.1722 33.8883 97.9639 33.6768C97.7588 33.4619 97.4772 33.3545 97.1191 33.3545C96.7546 33.3545 96.4681 33.4652 96.2598 33.6865C96.0514 33.9079 95.9033 34.1895 95.8154 34.5312C95.7308 34.873 95.6885 35.2279 95.6885 35.5957C95.6885 36.2207 95.8171 36.722 96.0742 37.0996C96.3314 37.4772 96.6829 37.666 97.1289 37.666ZM102.402 38.1543V37.4561H103.281L105.854 30.8057H107.012L109.624 37.4561H110.444V38.1543H107.285V37.4561H108.374L107.695 35.6934H104.873L104.233 37.4561H105.464V38.1543H102.402ZM105.103 35.0732H107.451L106.245 31.7627L105.103 35.0732ZM110.718 38.1543V37.6074H111.67V33.4619H110.718V32.915L112.568 32.832L112.7 33.9746C112.782 33.6979 112.93 33.4375 113.145 33.1934C113.258 33.0664 113.398 32.9655 113.564 32.8906C113.73 32.8125 113.911 32.7734 114.106 32.7734C114.37 32.7734 114.596 32.8467 114.785 32.9932C114.977 33.1396 115.073 33.3464 115.073 33.6133C115.073 33.8672 114.998 34.0641 114.849 34.2041C114.702 34.3441 114.528 34.4141 114.326 34.4141C114.137 34.4141 113.975 34.3555 113.838 34.2383C113.701 34.1211 113.633 33.9632 113.633 33.7646C113.633 33.6963 113.649 33.6263 113.682 33.5547C113.714 33.4831 113.747 33.4277 113.779 33.3887L113.833 33.335C113.638 33.335 113.465 33.3968 113.315 33.5205C113.169 33.641 113.053 33.8021 112.969 34.0039C112.803 34.4076 112.72 34.8551 112.72 35.3467V37.6074H113.818V38.1543H110.718ZM117.617 38.2861C117.34 38.2861 117.082 38.2275 116.841 38.1104C116.6 37.9932 116.405 37.819 116.255 37.5879C116.108 37.3535 116.035 37.0622 116.035 36.7139V33.4619H115.039V33.2324C115.29 33.1576 115.518 33.0241 115.723 32.832C115.928 32.6367 116.09 32.4268 116.211 32.2021C116.312 32.0199 116.385 31.8766 116.431 31.7725C116.476 31.665 116.522 31.5576 116.567 31.4502C116.613 31.3428 116.683 31.1979 116.777 31.0156C116.846 30.8757 116.906 30.8057 116.958 30.8057C117.043 30.8057 117.085 30.8626 117.085 30.9766V32.915H119.009V33.4717H117.085V36.7432C117.085 37.0296 117.15 37.2445 117.28 37.3877C117.41 37.5309 117.583 37.6025 117.798 37.6025C118.058 37.6025 118.255 37.5179 118.389 37.3486C118.522 37.1761 118.589 36.875 118.589 36.4453V35.7422H119.175V36.3428C119.175 36.9873 119.059 37.4723 118.828 37.7979C118.6 38.1234 118.197 38.2861 117.617 38.2861ZM119.751 38.1543V37.583H120.693V33.4619H119.741V32.915H121.743V37.583H122.7V38.1543H119.751ZM121.138 31.9873C120.939 31.9873 120.768 31.9157 120.625 31.7725C120.485 31.6292 120.415 31.46 120.415 31.2646C120.415 31.0628 120.485 30.8919 120.625 30.752C120.768 30.6087 120.939 30.5371 121.138 30.5371C121.333 30.5371 121.502 30.6087 121.646 30.752C121.792 30.8952 121.865 31.0661 121.865 31.2646C121.865 31.46 121.792 31.6292 121.646 31.7725C121.502 31.9157 121.333 31.9873 121.138 31.9873ZM125.664 38.2861C125.16 38.2861 124.717 38.1706 124.336 37.9395C123.958 37.7083 123.664 37.3926 123.452 36.9922C123.241 36.5918 123.135 36.1393 123.135 35.6348C123.135 35.1172 123.237 34.6419 123.442 34.209C123.647 33.776 123.947 33.4294 124.341 33.1689C124.738 32.9053 125.218 32.7734 125.781 32.7734C126.016 32.7734 126.253 32.8092 126.494 32.8809C126.738 32.9492 126.963 33.0534 127.168 33.1934C127.373 33.3333 127.537 33.5107 127.661 33.7256C127.788 33.9404 127.852 34.1927 127.852 34.4824C127.852 34.6777 127.783 34.8584 127.646 35.0244C127.513 35.1904 127.326 35.2734 127.085 35.2734C126.873 35.2734 126.694 35.2116 126.548 35.0879C126.405 34.9609 126.333 34.7933 126.333 34.585C126.333 34.3734 126.408 34.209 126.558 34.0918C126.707 33.9746 126.883 33.916 127.085 33.916C126.978 33.7435 126.825 33.6019 126.626 33.4912C126.431 33.3805 126.206 33.3252 125.952 33.3252C125.571 33.3252 125.254 33.4294 125 33.6377C124.749 33.8428 124.561 34.1097 124.434 34.4385C124.307 34.764 124.243 35.109 124.243 35.4736C124.243 36.1019 124.388 36.5967 124.678 36.958C124.967 37.3161 125.369 37.4951 125.884 37.4951C126.151 37.4951 126.392 37.4284 126.606 37.2949C126.821 37.1615 126.999 37.0052 127.139 36.8262C127.279 36.6439 127.37 36.4827 127.412 36.3428L127.964 36.5234C127.84 37.0573 127.578 37.4854 127.178 37.8076C126.777 38.1266 126.273 38.2861 125.664 38.2861ZM128.413 38.1543V37.6074H129.502V31.4062H128.413V30.8057H130.552V37.6074H131.602V38.1543H128.413ZM134.6 38.2861C134.202 38.2861 133.84 38.2113 133.511 38.0615C133.185 37.9085 132.917 37.7051 132.705 37.4512C132.269 36.9238 132.051 36.307 132.051 35.6006C132.051 35.3076 132.085 35.0228 132.153 34.7461C132.222 34.4694 132.326 34.2122 132.466 33.9746C132.606 33.737 132.773 33.5286 132.969 33.3496C133.164 33.1673 133.397 33.0257 133.667 32.9248C133.931 32.8239 134.222 32.7734 134.541 32.7734C135.221 32.7734 135.781 33.0013 136.221 33.457C136.436 33.6816 136.606 33.9665 136.733 34.3115C136.86 34.6533 136.927 35.0374 136.934 35.4639H133.169V35.5029C133.169 36.0693 133.289 36.5462 133.53 36.9336C133.651 37.1257 133.81 37.277 134.009 37.3877C134.211 37.4984 134.442 37.5537 134.702 37.5537C135.041 37.5537 135.358 37.4479 135.654 37.2363C135.954 37.0247 136.156 36.7269 136.26 36.3428L136.831 36.5234C136.704 37.0605 136.445 37.4886 136.055 37.8076C135.664 38.1266 135.179 38.2861 134.6 38.2861ZM133.203 34.9365H135.859C135.846 34.4645 135.716 34.0837 135.469 33.7939C135.225 33.501 134.925 33.3545 134.57 33.3545C134.212 33.3545 133.905 33.501 133.647 33.7939C133.39 34.0837 133.242 34.4645 133.203 34.9365ZM139.814 38.2861C139.577 38.2861 139.333 38.2617 139.082 38.2129C138.835 38.1641 138.605 38.0876 138.394 37.9834C138.182 37.8792 138.011 37.7441 137.881 37.5781C137.754 37.4089 137.69 37.2054 137.69 36.9678C137.69 36.7562 137.757 36.582 137.891 36.4453C138.024 36.3086 138.18 36.2402 138.359 36.2402C138.542 36.2402 138.696 36.2907 138.823 36.3916C138.953 36.4925 139.019 36.639 139.019 36.8311C139.019 36.9971 138.97 37.1354 138.872 37.2461C138.774 37.3535 138.664 37.4072 138.54 37.4072C138.664 37.4984 138.831 37.5749 139.043 37.6367C139.258 37.6953 139.473 37.7246 139.688 37.7246C139.915 37.7246 140.135 37.7002 140.347 37.6514C140.558 37.5993 140.732 37.5114 140.869 37.3877C141.006 37.2607 141.074 37.0866 141.074 36.8652C141.074 36.709 141.025 36.5706 140.928 36.4502C140.833 36.3265 140.708 36.2288 140.552 36.1572C140.396 36.0856 140.216 36.014 140.015 35.9424C139.816 35.8708 139.613 35.8089 139.404 35.7568C139.131 35.6852 138.866 35.5908 138.608 35.4736C138.354 35.3532 138.145 35.1953 137.979 35C137.816 34.8047 137.734 34.5589 137.734 34.2627C137.734 33.9274 137.835 33.6507 138.037 33.4326C138.242 33.2113 138.501 33.0469 138.813 32.9395C139.129 32.8288 139.453 32.7734 139.785 32.7734C139.993 32.7734 140.216 32.7979 140.454 32.8467C140.695 32.8923 140.921 32.9639 141.133 33.0615C141.348 33.1592 141.523 33.2829 141.66 33.4326C141.797 33.5824 141.865 33.7614 141.865 33.9697C141.865 34.1878 141.802 34.3652 141.675 34.502C141.551 34.6354 141.405 34.7021 141.235 34.7021C141.05 34.7021 140.892 34.6468 140.762 34.5361C140.632 34.4222 140.566 34.2676 140.566 34.0723C140.566 33.9388 140.599 33.8346 140.664 33.7598C140.732 33.6816 140.824 33.6051 140.938 33.5303C140.615 33.374 140.251 33.2959 139.844 33.2959C139.508 33.2959 139.225 33.3691 138.994 33.5156C138.763 33.6621 138.647 33.8688 138.647 34.1357C138.647 34.2627 138.695 34.3766 138.789 34.4775C138.887 34.5752 139.015 34.6533 139.175 34.7119C139.331 34.7738 139.508 34.8389 139.707 34.9072C139.909 34.9723 140.116 35.0326 140.327 35.0879C140.539 35.1465 140.744 35.2246 140.942 35.3223C141.144 35.4167 141.325 35.5208 141.484 35.6348C141.641 35.7487 141.766 35.8984 141.86 36.084C141.958 36.2695 142.007 36.4795 142.007 36.7139C142.007 37.0231 141.942 37.2803 141.812 37.4854C141.685 37.6872 141.514 37.8467 141.299 37.9639C141.084 38.0811 140.848 38.1641 140.591 38.2129C140.334 38.2617 140.075 38.2861 139.814 38.2861ZM146.484 40.4346C146.035 40.4346 145.669 40.332 145.386 40.127C145.106 39.9251 144.966 39.6647 144.966 39.3457C144.966 39.1178 145.041 38.9307 145.19 38.7842C145.34 38.6377 145.545 38.5645 145.806 38.5645C146.007 38.5645 146.159 38.6328 146.26 38.7695C146.364 38.9062 146.416 39.0739 146.416 39.2725C146.416 39.3929 146.375 39.4987 146.294 39.5898C146.216 39.6842 146.12 39.7591 146.006 39.8145C146.139 39.8861 146.247 39.9219 146.328 39.9219C146.615 39.9219 146.855 39.7933 147.051 39.5361C147.249 39.2822 147.401 38.859 147.505 38.2666L145.566 33.4619H144.595V32.915H147.607V33.4619H146.719L148.135 37.2949L149.346 33.4619H148.535V32.915H151.045V33.4619H150.205L148.525 38.1738C148.327 38.7305 148.127 39.1732 147.925 39.502C147.723 39.834 147.505 40.0716 147.271 40.2148C147.039 40.3613 146.777 40.4346 146.484 40.4346ZM153.545 38.2861C153.148 38.2861 152.785 38.2113 152.456 38.0615C152.131 37.9085 151.862 37.7051 151.65 37.4512C151.214 36.9238 150.996 36.307 150.996 35.6006C150.996 35.3076 151.03 35.0228 151.099 34.7461C151.167 34.4694 151.271 34.2122 151.411 33.9746C151.551 33.737 151.719 33.5286 151.914 33.3496C152.109 33.1673 152.342 33.0257 152.612 32.9248C152.876 32.8239 153.167 32.7734 153.486 32.7734C154.167 32.7734 154.727 33.0013 155.166 33.457C155.381 33.6816 155.552 33.9665 155.679 34.3115C155.806 34.6533 155.872 35.0374 155.879 35.4639H152.114V35.5029C152.114 36.0693 152.235 36.5462 152.476 36.9336C152.596 37.1257 152.756 37.277 152.954 37.3877C153.156 37.4984 153.387 37.5537 153.647 37.5537C153.986 37.5537 154.303 37.4479 154.6 37.2363C154.899 37.0247 155.101 36.7269 155.205 36.3428L155.776 36.5234C155.649 37.0605 155.391 37.4886 155 37.8076C154.609 38.1266 154.124 38.2861 153.545 38.2861ZM152.148 34.9365H154.805C154.792 34.4645 154.661 34.0837 154.414 33.7939C154.17 33.501 153.87 33.3545 153.516 33.3545C153.158 33.3545 152.85 33.501 152.593 33.7939C152.336 34.0837 152.188 34.4645 152.148 34.9365ZM158.73 38.2861C158.454 38.2861 158.195 38.2275 157.954 38.1104C157.713 37.9932 157.518 37.819 157.368 37.5879C157.222 37.3535 157.148 37.0622 157.148 36.7139V33.4619H156.152V33.2324C156.403 33.1576 156.631 33.0241 156.836 32.832C157.041 32.6367 157.204 32.4268 157.324 32.2021C157.425 32.0199 157.498 31.8766 157.544 31.7725C157.59 31.665 157.635 31.5576 157.681 31.4502C157.726 31.3428 157.796 31.1979 157.891 31.0156C157.959 30.8757 158.019 30.8057 158.071 30.8057C158.156 30.8057 158.198 30.8626 158.198 30.9766V32.915H160.122V33.4717H158.198V36.7432C158.198 37.0296 158.263 37.2445 158.394 37.3877C158.524 37.5309 158.696 37.6025 158.911 37.6025C159.172 37.6025 159.368 37.5179 159.502 37.3486C159.635 37.1761 159.702 36.875 159.702 36.4453V35.7422H160.288V36.3428C160.288 36.9873 160.173 37.4723 159.941 37.7979C159.714 38.1234 159.31 38.2861 158.73 38.2861Z" fill="#355576"/>
<path d="M243.999 276.873C243.999 276.963 189.413 277.029 122.101 277.029C54.7885 277.029 0.191406 276.963 0.191406 276.873C0.191406 276.783 54.7658 276.717 122.101 276.717C189.436 276.717 243.999 276.789 243.999 276.873Z" fill="#263238"/>
<path d="M64.8561 56.4102C67.5342 59.877 68.9843 64.2239 68.9563 68.7008C68.9279 71.2359 68.485 74.0292 69.882 76.0897C70.9382 77.6515 72.8691 78.4385 73.7266 80.1325C74.7602 82.1689 73.8799 84.746 74.516 86.9566C75.4132 90.0924 78.8887 91.4079 80.9502 93.8529C81.8289 94.934 82.4437 96.2266 82.7407 97.6173C83.0377 99.0081 83.0079 100.455 82.6538 101.83C82.2783 103.2 81.5991 104.456 80.6726 105.492C79.7461 106.529 78.5991 107.316 77.327 107.79C75.9687 108.356 74.4536 108.33 73.1133 107.717C71.7219 106.985 70.8417 105.477 70.1602 104.005C68.7916 101.11 56.7694 85.4608 56.0879 82.3011" fill="#263238"/>
<path d="M56.1134 52.7202C51.1954 51.8792 46.4592 55.3333 44.3978 60.127C42.3363 64.9207 42.2682 70.3392 42.1262 75.6255C41.9842 80.9118 41.6208 86.3904 39.0823 90.9198C37.4695 93.7972 34.9708 96.3262 34.5789 99.6362C34.2268 102.604 35.6806 105.595 35.1979 108.545C34.7777 111.116 32.9264 113.351 33.0002 115.952C33.0911 119.087 36.1406 121.448 39.0993 121.532C42.0581 121.616 44.8294 119.976 47.152 118.03C50.9363 114.852 53.9645 110.78 55.9941 106.142" fill="#263238"/>
<path d="M48.0229 65.1197C47.8684 63.8111 47.964 62.4831 48.3041 61.2143C48.6441 59.9455 49.2216 58.762 50.0024 57.7338C50.7831 56.7057 51.7512 55.8539 52.8491 55.2291C53.947 54.6043 55.1523 54.2192 56.3936 54.0966C61.3513 53.592 65.7638 57.5026 66.5078 62.7169C67.1608 67.2883 67.7174 71.9018 67.7003 73.5778C67.6379 78.6299 64.8609 80.5942 63.7251 81.1889C63.3166 81.344 62.8941 81.4547 62.4644 81.5193V81.5554L63.5207 87.3583C64.0034 91.1608 61.9987 94.5669 58.4096 95.1015C54.8206 95.6362 51.9981 92.7347 51.4473 88.9322L48.0229 65.1197Z" fill="#FFBE9D"/>
<path d="M65.5291 64.9279C65.4495 65.0481 64.8192 64.6937 64.0128 64.8198C63.2064 64.946 62.6669 65.4626 62.5647 65.3725C62.4624 65.2824 62.5647 65.1322 62.8145 64.8919C63.1251 64.5719 63.522 64.3619 63.9503 64.2912C64.3705 64.2226 64.8005 64.2984 65.177 64.5074C65.4609 64.6997 65.5688 64.8799 65.5291 64.9279Z" fill="#263238"/>
<path d="M58.3396 66.7783C58.2601 66.8985 57.6297 66.5381 56.8177 66.6642C56.0056 66.7904 55.4774 67.313 55.3752 67.2229C55.273 67.1328 55.3752 66.9766 55.6251 66.7423C55.9356 66.4223 56.3325 66.2124 56.7609 66.1416C57.1817 66.0782 57.6106 66.1559 57.9875 66.3638C58.2658 66.5501 58.3794 66.7243 58.3396 66.7783Z" fill="#263238"/>
<path d="M61.2868 71.3617C61.693 71.155 62.1223 71.0036 62.5645 70.9111C62.769 70.8571 62.9564 70.785 62.9734 70.6288C62.955 70.4093 62.876 70.2004 62.7463 70.0281L61.9001 68.4302C60.7246 66.1955 59.8443 64.3453 59.9295 64.2912C60.0147 64.2372 61.0653 66.0213 62.2011 68.256C62.4907 68.8086 62.769 69.3373 63.0189 69.8359C63.1839 70.0801 63.2641 70.3772 63.246 70.6769C63.2273 70.7588 63.1909 70.8351 63.1396 70.8997C63.0884 70.9643 63.0238 71.0155 62.9507 71.0493C62.84 71.1006 62.7236 71.1369 62.6043 71.1574C62.1754 71.286 61.7325 71.3547 61.2868 71.3617Z" fill="#263238"/>
<path d="M62.4174 81.5249C62.4174 81.5249 59.3338 82.2758 55.0859 80.3955C55.0859 80.3955 56.9202 84.5705 62.707 83.0867L62.4174 81.5249Z" fill="#EB996E"/>
<path d="M57.925 64.5368C57.8795 64.7831 57.0561 64.7951 56.1248 65.0654C55.1934 65.3357 54.4608 65.7202 54.3075 65.534C54.2394 65.4439 54.3416 65.2036 54.6198 64.9333C54.9945 64.5943 55.4373 64.3499 55.9145 64.2188C56.3917 64.0877 56.8908 64.0731 57.3741 64.1764C57.7489 64.2665 57.925 64.4227 57.925 64.5368Z" fill="#263238"/>
<path d="M64.8658 63.0343C64.7522 63.2506 64.1673 63.1365 63.4972 63.2266C62.827 63.3167 62.2762 63.551 62.1172 63.3647C62.049 63.2746 62.1172 63.0704 62.333 62.8481C62.6308 62.5688 63.0045 62.3964 63.4006 62.3555C63.7918 62.3057 64.188 62.3832 64.5364 62.5778C64.809 62.74 64.9169 62.9262 64.8658 63.0343Z" fill="#263238"/>
<path d="M56.5843 67.883C56.5968 67.9759 56.6266 68.0654 56.672 68.146C56.7174 68.2267 56.7776 68.297 56.8489 68.3529C56.9202 68.4088 57.0013 68.4491 57.0875 68.4716C57.1737 68.494 57.2632 68.4982 57.3509 68.4837C57.4362 68.4733 57.5187 68.4451 57.5936 68.4007C57.6684 68.3563 57.7342 68.2965 57.787 68.225C57.8399 68.1534 57.8788 68.0715 57.9014 67.9839C57.924 67.8963 57.9299 67.8048 57.9188 67.7148C57.8922 67.5277 57.7965 67.3595 57.6528 67.2469C57.5091 67.1343 57.3291 67.0865 57.1522 67.1141C57.0666 67.1237 56.9837 67.1514 56.9085 67.1955C56.8332 67.2397 56.7671 67.2995 56.7142 67.3712C56.6612 67.4429 56.6224 67.5252 56.6001 67.6131C56.5778 67.7011 56.5724 67.7928 56.5843 67.883Z" fill="#263238"/>
<path d="M63.7464 66.2424C63.773 66.4294 63.8687 66.5977 64.0124 66.7103C64.1561 66.8229 64.3361 66.8706 64.5131 66.8431C64.5983 66.8327 64.6808 66.8045 64.7557 66.7601C64.8305 66.7156 64.8963 66.6559 64.9492 66.5844C65.002 66.5128 65.0409 66.4309 65.0635 66.3433C65.0861 66.2557 65.0921 66.1642 65.0809 66.0742C65.0543 65.8871 64.9587 65.7188 64.8149 65.6062C64.6712 65.4937 64.4912 65.4459 64.3143 65.4734C64.2287 65.483 64.1458 65.5107 64.0706 65.5549C63.9953 65.5991 63.9292 65.6588 63.8763 65.7306C63.8233 65.8023 63.7845 65.8846 63.7622 65.9725C63.7399 66.0604 63.7345 66.1522 63.7464 66.2424Z" fill="#263238"/>
<path d="M62.5592 73.0175C62.3362 72.9441 62.096 72.9556 61.8803 73.0499C61.6645 73.1443 61.4868 73.3156 61.3779 73.5341C61.274 73.7347 61.2318 73.9647 61.2572 74.1919C61.2827 74.4191 61.3745 74.6322 61.5199 74.8016C61.6747 74.9624 61.8785 75.0598 62.0949 75.0763C62.3113 75.0928 62.5261 75.0274 62.7011 74.8917C62.9202 74.6807 63.0527 74.3876 63.0703 74.0747C63.1088 73.7879 63.044 73.4963 62.8885 73.2578C62.8088 73.1411 62.6949 73.0556 62.5645 73.0143C62.4341 72.9731 62.2945 72.9784 62.1673 73.0295" fill="#EB996E"/>
<path d="M65.8742 58.6018C65.4284 56.6985 64.3161 55.0453 62.7622 53.9763C61.4902 53.0044 59.9793 52.4431 58.4121 52.3603C56.8352 52.2885 55.2956 52.8803 54.1302 54.0063C53.3032 54.8734 52.8303 56.0487 52.8127 57.2802L52.9036 56.4392C52.665 57.1235 52.665 57.8754 52.9036 58.5597C53.0342 58.9262 53.1932 59.2986 53.3295 59.6651C53.7361 60.724 54.4902 61.5921 55.4534 62.11C55.8896 62.3575 56.3782 62.4836 56.8731 62.4764C57.1209 62.4711 57.3647 62.4088 57.5873 62.2936C57.8099 62.1784 58.0062 62.0133 58.1623 61.8096C58.5149 61.1585 58.6243 60.3913 58.4689 59.6591C58.8416 60.3826 59.3733 61.0007 60.0193 61.4612C60.3491 61.6842 60.7414 61.7802 61.1303 61.7331C61.5191 61.6861 61.8808 61.4989 62.1545 61.2029C62.6202 60.6022 62.4385 59.653 62.1545 58.9082C62.5939 59.6108 63.2093 60.1703 63.932 60.5241C64.1222 60.6395 64.3329 60.7119 64.5509 60.7367C64.7689 60.7615 64.9894 60.7382 65.1984 60.6683C65.3655 60.5806 65.5117 60.454 65.6258 60.2979C65.7399 60.1418 65.819 59.9603 65.8572 59.7672C65.9415 59.3845 65.9473 58.9871 65.8742 58.6018Z" fill="#263238"/>
<path d="M61.7704 60.1986C61.7193 60.1986 61.7307 59.4838 61.5092 58.3965C61.2537 56.9516 60.5671 55.6315 59.55 54.63C58.991 54.0923 58.3166 53.7067 57.5851 53.5066C56.986 53.3511 56.3621 53.3347 55.7565 53.4586C55.1982 53.5966 54.665 53.8299 54.1777 54.1494C54.1777 54.1494 54.2743 53.9992 54.5241 53.807C54.8828 53.5416 55.2854 53.3501 55.711 53.2423C56.3479 53.0846 57.0107 53.0846 57.6476 53.2423C58.4323 53.4495 59.155 53.8628 59.7488 54.4437C60.8137 55.4866 61.5091 56.8836 61.7193 58.4025C61.7869 58.8515 61.8211 59.3054 61.8216 59.7601C61.8286 59.9083 61.8113 60.0567 61.7704 60.1986Z" fill="#355576"/>
<path d="M114.07 130.237L92.2345 121.076C92.2345 121.076 81.0527 105.559 81.2856 105.259L73.4316 114.354L84.8463 130.687L111.304 137.247L115.847 135.913C114.848 130.813 114.07 130.237 114.07 130.237Z" fill="#FFBE9D"/>
<path d="M66.482 85.97L63.5063 84.7686L50.6606 86.4926V88.8955L50.2914 88.9435C47.5224 89.5663 44.8665 90.6576 42.4261 92.1754C40.1402 93.6515 38.3239 95.8171 37.2107 98.3937C36.0976 100.97 35.7384 103.84 36.1793 106.635C36.7018 110.071 37.7126 114.246 39.6662 116.661C43.3972 121.28 46.8046 115.573 46.8046 115.573C46.8046 115.573 49.1443 121.22 49.008 123.893C48.8944 126.134 47.9631 130.796 47.6621 132.249C47.6497 132.307 47.6487 132.367 47.659 132.426C47.6694 132.485 47.6909 132.54 47.7222 132.59C47.7536 132.639 47.7941 132.681 47.8414 132.714C47.8886 132.746 47.9417 132.768 47.9972 132.778L75.0969 138.082L75.2275 131.072L74.3643 102.237L73.1434 91.04C73.1434 91.04 73.1831 85.6937 66.482 85.97Z" fill="#355576"/>
<path d="M72.7324 89.1787L83.068 104.972L74.7484 115.688L72.7324 89.1787Z" fill="#355576"/>
<path d="M74.9613 122.411C74.9242 122.072 74.9109 121.73 74.9216 121.389C74.9216 120.681 74.9216 119.749 74.8875 118.614C74.8372 115.567 74.6306 112.525 74.2685 109.501C73.8426 105.957 73.1895 102.791 72.6954 100.49L72.0935 97.7872C72.0062 97.4603 71.9417 97.127 71.9004 96.79C72.0296 97.1022 72.1322 97.4258 72.207 97.7572C72.3831 98.3579 72.6216 99.301 72.8942 100.442C73.6274 103.406 74.1851 106.416 74.5638 109.453C74.9289 112.489 75.1072 115.547 75.0976 118.608C75.0976 119.81 75.0692 120.735 75.0352 121.389C75.0381 121.731 75.0134 122.073 74.9613 122.411Z" fill="#263238"/>
<path d="M49.5186 98.3982C49.5186 98.4462 48.735 98.4402 47.4799 98.5063C45.8423 98.6002 44.2137 98.8231 42.6074 99.1731C41.0016 99.5296 39.4224 100.009 37.8825 100.609C36.7013 101.071 35.9915 101.414 35.9688 101.366C36.1143 101.245 36.2748 101.146 36.4458 101.071C36.7581 100.891 37.2238 100.663 37.8087 100.405C40.8731 99.066 44.148 98.3487 47.4629 98.29C48.0989 98.29 48.5987 98.29 48.9678 98.3261C49.1538 98.3197 49.3397 98.3441 49.5186 98.3982Z" fill="#FAFAFA"/>
<path d="M73.4542 105.626C73.0389 105.786 72.6054 105.887 72.1651 105.927C70.0652 106.251 67.9377 106.327 65.8218 106.155C65.3799 106.147 64.9408 106.078 64.5156 105.951C64.9539 105.909 65.3948 105.909 65.8331 105.951C66.6395 105.951 67.7583 105.951 68.9906 105.951C70.2229 105.951 71.336 105.819 72.1424 105.74C72.5755 105.66 73.0146 105.622 73.4542 105.626Z" fill="#FAFAFA"/>
<path d="M78.201 98.4831C77.575 99.2482 76.825 99.889 75.9863 100.375C75.1944 100.942 74.3108 101.349 73.3796 101.577C73.3456 101.493 74.5154 100.976 75.8329 100.087C77.1504 99.198 78.1442 98.411 78.201 98.4831Z" fill="#FAFAFA"/>
<path d="M74.0226 91.1606C72.2309 92.8655 69.948 93.8814 67.543 94.044C67.543 93.9479 69.1047 93.6956 70.8992 92.8847C72.6937 92.0737 73.9658 91.0825 74.0226 91.1606Z" fill="#FAFAFA"/>
<path d="M74.5852 117.856C74.4181 117.975 74.2391 118.074 74.0514 118.15C73.6936 118.331 73.1768 118.553 72.5181 118.811C70.8066 119.462 69.0399 119.937 67.2423 120.229C65.4449 120.522 63.6247 120.629 61.8076 120.547C61.1091 120.517 60.5469 120.463 60.1607 120.409C59.9586 120.395 59.7585 120.357 59.5645 120.295C59.5645 120.241 60.4276 120.295 61.836 120.331C65.4467 120.367 69.0389 119.782 72.4726 118.601C73.7674 118.15 74.5681 117.808 74.5852 117.856Z" fill="#FAFAFA"/>
<path d="M74.7937 125.997C74.7937 125.997 74.7142 126.057 74.5495 126.147L73.8226 126.484C73.1979 126.796 72.2723 127.205 71.1138 127.685C69.9553 128.166 68.5526 128.628 66.9739 129.085C63.5417 130.062 60.0188 130.641 56.4679 130.809C54.8323 130.875 53.3615 130.869 52.1235 130.809C50.8855 130.749 49.8917 130.653 49.2045 130.551L48.4152 130.436C48.3222 130.429 48.2305 130.409 48.1426 130.376C48.2348 130.361 48.3287 130.361 48.4208 130.376L49.2159 130.43C49.903 130.49 50.9196 130.551 52.1292 130.587C53.3388 130.623 54.8323 130.587 56.4565 130.526C58.0807 130.466 59.8639 130.25 61.7209 129.926C63.5779 129.601 65.327 129.211 66.9057 128.79C68.4845 128.37 69.8815 127.895 71.04 127.457C72.1985 127.018 73.1412 126.652 73.7772 126.376L74.5155 126.069C74.6056 126.035 74.6988 126.011 74.7937 125.997Z" fill="#FAFAFA"/>
<path d="M24.9873 253.703L21.915 268.379L16.3099 279.246C16.2146 279.431 16.1563 279.635 16.1386 279.846C16.1209 280.056 16.1441 280.268 16.2069 280.468C16.2697 280.669 16.3708 280.854 16.5037 281.011C16.6367 281.169 16.7988 281.296 16.98 281.384C17.1904 281.486 17.4208 281.534 17.6521 281.522C17.8833 281.511 18.1085 281.441 18.3089 281.318C20.9098 279.732 30.4561 273.827 30.6208 272.74C30.8195 271.484 34.8345 257.488 34.8345 257.488L24.9873 253.703Z" fill="#355576"/>
<g opacity="0.6">
<path d="M16.9805 281.384L30.8541 271.772L30.7064 272.373C30.585 272.909 30.287 273.382 29.8659 273.707C28.7301 274.566 25.567 276.873 18.3548 281.33C18.1477 281.458 17.9138 281.53 17.674 281.54C17.4342 281.549 17.196 281.496 16.9805 281.384Z" fill="#355576"/>
</g>
<g opacity="0.6">
<path d="M29.1079 266.31C28.9076 266.398 28.7451 266.562 28.6518 266.769C28.5585 266.977 28.541 267.213 28.6025 267.433C28.6783 267.648 28.8289 267.823 29.0232 267.924C29.2176 268.024 29.4409 268.042 29.6474 267.974C29.862 267.88 30.0356 267.705 30.1344 267.483C30.2331 267.26 30.2498 267.007 30.1812 266.772C30.0807 266.56 29.907 266.396 29.6958 266.314C29.4846 266.233 29.2519 266.24 29.0455 266.334" fill="#355576"/>
</g>
<path d="M21.6131 275.82C21.384 275.28 21.0624 274.789 20.6647 274.373C20.2066 274.035 19.6921 273.792 19.1484 273.658C19.1484 273.616 19.3472 273.55 19.6823 273.586C20.1183 273.645 20.5286 273.837 20.8635 274.138C21.2009 274.428 21.4499 274.817 21.579 275.256C21.6756 275.598 21.6472 275.82 21.6131 275.82Z" fill="#263238"/>
<path d="M20.1781 277.52C20.0986 277.568 19.7635 276.98 19.0991 276.577C18.6753 276.369 18.239 276.19 17.793 276.042C18.0381 275.957 18.2989 275.935 18.5537 275.978C18.8085 276.021 19.05 276.128 19.2581 276.289C20.0134 276.751 20.2576 277.502 20.1781 277.52Z" fill="#263238"/>
<path d="M24.0236 273.791C23.5407 273.224 23.0166 272.697 22.4562 272.217C21.8388 271.818 21.1933 271.471 20.5254 271.177C21.2934 271.161 22.0421 271.433 22.6379 271.946C23.2949 272.364 23.7869 273.019 24.0236 273.791Z" fill="#263238"/>
<path d="M25.3114 269.412C25.2546 269.49 24.5675 268.956 23.6077 268.661C22.648 268.367 21.7791 268.415 21.7734 268.313C22.4055 268.14 23.0701 268.15 23.6969 268.344C24.3236 268.537 24.8893 268.907 25.3341 269.412H25.3114Z" fill="#263238"/>
<path d="M26.3134 265.128C25.7595 264.765 25.1615 264.484 24.5359 264.293C23.8915 264.2 23.2382 264.2 22.5938 264.293C22.5938 264.257 22.7698 264.112 23.1332 263.998C23.611 263.861 24.1125 263.844 24.5976 263.948C25.0827 264.052 25.5381 264.275 25.9273 264.599C26.2169 264.887 26.3362 265.104 26.3134 265.128Z" fill="#263238"/>
<path d="M24.7494 263.481C24.7498 263.29 24.7885 263.102 24.8629 262.928C25.0238 262.432 25.2789 261.976 25.6125 261.589C25.8308 261.281 26.1378 261.058 26.4871 260.952C26.606 260.931 26.728 260.949 26.8374 261.002C26.9467 261.056 27.0384 261.143 27.1004 261.252C27.2048 261.476 27.2271 261.733 27.1629 261.973C27.0173 262.455 26.7179 262.868 26.3159 263.142C25.9139 263.416 25.4344 263.534 24.9595 263.475C24.4911 263.404 24.053 263.189 23.7003 262.855C23.3476 262.522 23.0961 262.085 22.9775 261.601C22.9503 261.478 22.9478 261.35 22.9703 261.226C22.9928 261.101 23.0398 260.984 23.1081 260.88C23.1866 260.783 23.2922 260.715 23.4096 260.686C23.527 260.657 23.6502 260.668 23.7612 260.718C24.0822 260.887 24.3562 261.142 24.5563 261.457C24.8572 261.873 25.086 262.343 25.2321 262.844C25.3012 263.023 25.3341 263.216 25.3286 263.409C25.0997 262.761 24.78 262.154 24.3802 261.607C24.1941 261.35 23.9527 261.144 23.676 261.006C23.6152 260.978 23.5475 260.972 23.483 260.988C23.4185 261.004 23.3607 261.042 23.3183 261.096C23.2786 261.167 23.2531 261.245 23.2433 261.327C23.2335 261.409 23.2397 261.492 23.2615 261.571C23.3799 261.978 23.6048 262.342 23.9102 262.621C24.2157 262.899 24.5892 263.081 24.9879 263.145C25.3895 263.194 25.7952 263.098 26.1386 262.872C26.482 262.646 26.743 262.304 26.8789 261.901C26.934 261.738 26.934 261.56 26.8789 261.396C26.8467 261.335 26.7971 261.286 26.737 261.255C26.6769 261.225 26.6093 261.216 26.5439 261.228C26.2479 261.314 25.9842 261.495 25.7886 261.745C25.353 262.258 25.0017 262.845 24.7494 263.481Z" fill="#263238"/>
<g opacity="0.3">
<path d="M24.6117 255.294L23.9473 258.658L33.9933 260.424L34.8337 257.487L24.9695 253.702L24.6117 255.294Z" fill="black"/>
</g>
<path d="M69.8516 259.134L69.0225 270.86C69.0225 270.86 80.0169 275.665 80.0623 277.876L58.4824 276.993L59.0503 258.659L69.8516 259.134Z" fill="#355576"/>
<g opacity="0.6">
<path d="M62.4046 269.597C62.1951 269.657 62.0135 269.795 61.8942 269.987C61.7749 270.178 61.7261 270.41 61.7572 270.637C61.805 270.86 61.9314 271.056 62.1107 271.184C62.29 271.312 62.5088 271.364 62.7226 271.327C62.9453 271.265 63.1382 271.117 63.2641 270.913C63.39 270.709 63.4398 270.463 63.404 270.222C63.3323 269.994 63.1799 269.804 62.9788 269.692C62.7777 269.58 62.5434 269.555 62.3251 269.621" fill="#355576"/>
</g>
<g opacity="0.6">
<path d="M58.4961 276.992L58.621 275.142L79.2639 276.661C79.2639 276.661 80.2123 277.142 80.076 277.863L58.4961 276.992Z" fill="#355576"/>
</g>
<path d="M69.387 270.757C69.387 270.872 68.8532 270.902 68.3251 271.238C67.7969 271.574 67.5016 272.031 67.4051 271.983C67.3085 271.935 67.4903 271.298 68.1377 270.902C68.7851 270.505 69.4154 270.655 69.387 270.757Z" fill="#263238"/>
<path d="M71.6119 271.855C71.6119 271.969 71.1689 272.137 70.7941 272.594C70.4193 273.05 70.3001 273.543 70.1922 273.537C70.0843 273.531 70.0445 272.894 70.5215 272.335C70.9986 271.777 71.6119 271.735 71.6119 271.855Z" fill="#263238"/>
<path d="M72.7951 274.757C72.6985 274.757 72.5736 274.21 72.8632 273.615C73.1529 273.021 73.6583 272.792 73.698 272.888C73.7378 272.985 73.4255 273.297 73.1926 273.789C72.9598 274.282 72.8973 274.751 72.7951 274.757Z" fill="#263238"/>
<path d="M69.2819 268.067C69.2365 268.163 68.7595 267.989 68.1462 268.007C67.5328 268.025 67.0785 268.205 67.0104 268.109C66.9422 268.013 67.4193 267.634 68.1462 267.622C68.8731 267.61 69.3501 267.983 69.2819 268.067Z" fill="#263238"/>
<g opacity="0.3">
<path d="M69.6978 261.458L69.5502 263.548L58.959 263.008L59.0328 260.593L69.6978 261.458Z" fill="black"/>
</g>
<path d="M69.4245 265.694C69.0677 265.785 68.6938 265.769 68.3455 265.646C67.9518 265.559 67.5702 265.42 67.2097 265.231C66.9995 265.122 66.7965 264.997 66.6021 264.859C66.4835 264.782 66.3764 264.687 66.2841 264.577C66.2215 264.491 66.1875 264.385 66.1875 264.276C66.1875 264.168 66.2215 264.062 66.2841 263.976C66.3393 263.9 66.4109 263.839 66.4929 263.798C66.5749 263.757 66.6649 263.738 66.7554 263.742C66.8922 263.747 67.0277 263.772 67.1586 263.814C67.3859 263.884 67.6064 263.976 67.8174 264.09C68.176 264.275 68.5039 264.521 68.7885 264.817C69.2712 265.328 69.4245 265.754 69.3905 265.772C69.3564 265.79 69.1122 265.448 68.6181 265.021C68.3281 264.781 68.0115 264.58 67.6754 264.42C67.475 264.333 67.2703 264.256 67.0621 264.192C66.8349 264.12 66.6419 264.114 66.5794 264.192C66.5169 264.27 66.5794 264.252 66.5794 264.324C66.6475 264.404 66.7259 264.472 66.8122 264.529C66.9944 264.663 67.184 264.785 67.3801 264.895C67.7076 265.086 68.0518 265.243 68.408 265.364C68.7538 265.448 69.0935 265.558 69.4245 265.694Z" fill="#263238"/>
<path d="M69.2813 265.849C69.0926 265.512 69.0072 265.122 69.0371 264.732C69.0393 264.309 69.1045 263.89 69.2302 263.488C69.3117 263.253 69.4124 263.026 69.5311 262.81C69.595 262.661 69.6937 262.532 69.818 262.435C69.9423 262.339 70.0879 262.277 70.241 262.257C70.338 262.263 70.4311 262.299 70.5096 262.36C70.588 262.42 70.6485 262.504 70.684 262.599C70.7333 262.734 70.7639 262.876 70.7748 263.02C70.8121 263.275 70.8121 263.534 70.7748 263.789C70.6989 264.213 70.5253 264.611 70.2694 264.948C69.8264 265.549 69.3835 265.639 69.3721 265.603C69.3608 265.567 69.7129 265.345 70.0593 264.786C70.2581 264.467 70.388 264.106 70.4398 263.729C70.4685 263.509 70.4685 263.287 70.4398 263.068C70.4114 262.828 70.3319 262.623 70.2467 262.647C70.1615 262.671 69.9514 262.816 69.8548 263.008C69.744 263.2 69.6471 263.401 69.5652 263.608C69.4338 263.971 69.3497 264.351 69.3153 264.738C69.2415 265.411 69.338 265.849 69.2813 265.849Z" fill="#263238"/>
<path d="M47.5448 132.671C47.5448 132.671 44.1374 132.833 41.8659 145.16C39.5943 157.487 22.2793 257.368 22.2793 257.368L34.8354 257.488L58.4937 162.527L56.9207 260.444L69.6755 261.477C69.6755 261.477 79.2445 153.174 79.3297 146.872C79.4432 139.015 75.1784 131.067 75.1784 131.067L47.5448 132.671Z" fill="#263238"/>
<path d="M64.8015 131.62C64.881 131.62 63.5748 138.679 61.8882 147.347C60.2015 156.015 58.7705 163.032 58.691 163.014C58.6115 162.996 59.9119 155.955 61.5986 147.287C63.2852 138.619 64.739 131.602 64.8015 131.62Z" fill="#355576"/>
<path d="M66.7567 133.379C66.7567 133.343 67.0975 133.235 67.4893 133.601C67.6006 133.708 67.6887 133.839 67.7475 133.985C67.8063 134.131 67.8345 134.289 67.83 134.448C67.8158 134.649 67.748 134.842 67.6344 135.003C67.5207 135.165 67.3661 135.289 67.1883 135.361C67.0149 135.445 66.8229 135.475 66.6342 135.448C66.4454 135.422 66.2675 135.339 66.1207 135.211C66.0109 135.102 65.9242 134.97 65.8664 134.823C65.8087 134.676 65.7811 134.517 65.7856 134.358C65.7856 133.806 66.1377 133.613 66.1434 133.649C66.0476 133.87 65.9973 134.109 65.9958 134.352C66.0034 134.474 66.0339 134.593 66.0856 134.703C66.1373 134.812 66.2091 134.909 66.2967 134.989C66.4088 135.071 66.5384 135.121 66.6738 135.136C66.8092 135.151 66.9459 135.13 67.0714 135.074C67.1969 135.018 67.3072 134.93 67.3921 134.818C67.4771 134.705 67.5339 134.572 67.5575 134.43C67.5658 134.309 67.551 134.186 67.514 134.071C67.4769 133.955 67.4183 133.849 67.3417 133.757C67.0634 133.415 66.7511 133.427 66.7567 133.379Z" fill="#355576"/>
<path d="M66.2181 138.258C66.2181 138.222 66.5702 138.258 66.786 138.757C66.8408 138.899 66.8657 139.052 66.8588 139.206C66.852 139.359 66.8135 139.509 66.7462 139.646C66.6486 139.808 66.511 139.938 66.3484 140.024C66.1858 140.109 66.0043 140.146 65.8233 140.131C65.6423 140.115 65.4687 140.048 65.3211 139.936C65.1736 139.824 65.0576 139.672 64.9857 139.495C64.9404 139.351 64.9255 139.197 64.9422 139.046C64.9589 138.894 65.0067 138.748 65.0823 138.618C65.3492 138.168 65.7127 138.18 65.7013 138.216C65.6899 138.252 65.4287 138.336 65.264 138.721C65.1807 138.936 65.1807 139.178 65.264 139.393C65.3233 139.513 65.4101 139.614 65.5164 139.688C65.6227 139.762 65.745 139.807 65.8719 139.818C65.9989 139.828 66.1263 139.805 66.2424 139.75C66.3585 139.695 66.4596 139.609 66.5361 139.501C66.6431 139.296 66.6696 139.055 66.6099 138.829C66.4452 138.42 66.1897 138.3 66.2181 138.258Z" fill="#355576"/>
<path d="M54.185 133.499C54.1617 133.706 54.112 133.908 54.0374 134.1C53.86 134.65 53.6377 135.183 53.373 135.692C52.5065 137.391 51.255 138.837 49.7307 139.899C48.2064 140.961 46.4569 141.606 44.6388 141.777C44.0928 141.828 43.5436 141.828 42.9976 141.777C42.8052 141.771 42.6144 141.738 42.4297 141.681C42.4297 141.621 43.2872 141.723 44.6445 141.543C46.4134 141.316 48.1084 140.658 49.5964 139.621C51.0843 138.584 52.3245 137.196 53.2196 135.566C53.8841 134.352 54.1339 133.481 54.185 133.499Z" fill="#355576"/>
<path d="M78.6124 142.263C78.6124 142.263 78.4648 142.191 78.2319 142.022C77.9066 141.775 77.6026 141.497 77.3233 141.193C76.3894 140.193 75.6606 139 75.1828 137.688C74.705 136.377 74.4883 134.975 74.5463 133.57C74.5593 133.148 74.6107 132.727 74.6996 132.315C74.7621 132.02 74.8019 131.864 74.8246 131.87C74.8473 131.876 74.7564 132.525 74.7564 133.576C74.7574 136.336 75.7267 138.997 77.4766 141.043C78.1411 141.818 78.6408 142.215 78.6124 142.263Z" fill="#355576"/>
<path d="M122.668 142.612C122.855 142.131 122.804 142.323 119.794 140.209C119.794 140.209 124.11 143.213 123.662 141.783C123.274 141.241 122.799 140.776 122.259 140.407C123.395 141.116 124.054 141.194 124.252 140.906C124.593 140.407 122.123 138.503 120.947 137.644C122.022 138.457 123.149 139.19 124.321 139.836C125.019 140.065 124.684 139.2 124.213 138.569C123.741 137.938 120.084 134.214 119.102 133.102C119.008 133.018 118.933 132.913 118.882 132.795C118.83 132.676 118.803 132.548 118.803 132.418C118.803 132.287 118.83 132.159 118.882 132.041C118.933 131.922 119.008 131.817 119.102 131.733C120.862 130.531 121.634 128.615 121.612 127.984C121.592 127.842 121.531 127.711 121.436 127.608C121.341 127.505 121.218 127.437 121.084 127.413C120.95 127.389 120.813 127.41 120.691 127.474C120.57 127.538 120.471 127.641 120.408 127.768C119.963 128.352 119.446 128.87 118.869 129.306C118.422 129.675 117.918 129.961 117.381 130.153C116.756 130.369 113.684 130.189 113.025 129.835L110.93 137.35C110.93 137.35 118.534 141.11 119.976 141.843C121.748 142.732 122.537 142.978 122.668 142.612Z" fill="#FFBE9D"/>
<path d="M118.423 139.099C118.36 139.189 119.348 139.952 120.626 140.811C121.904 141.67 122.977 142.289 123.028 142.199C123.079 142.109 122.091 141.34 120.819 140.487C119.547 139.634 118.48 138.985 118.423 139.099Z" fill="#EB996E"/>
<path d="M119.135 137.626C119.078 137.716 120.089 138.593 121.407 139.59C122.724 140.587 123.815 141.326 123.871 141.242C123.928 141.158 122.923 140.275 121.6 139.278C120.277 138.28 119.198 137.542 119.135 137.626Z" fill="#EB996E"/>
<path d="M119.895 136.136C119.838 136.22 120.781 137.073 122.002 138.034C123.223 138.995 124.273 139.704 124.319 139.62C124.364 139.536 123.439 138.683 122.218 137.722C120.997 136.76 119.957 136.052 119.895 136.136Z" fill="#EB996E"/>
<path d="M42.5524 108.918L48.1291 109.242C48.5241 110.889 49.0523 112.497 49.7079 114.048C54.1999 105.806 57.6583 94.7588 58.5443 90.3195C58.4193 89.883 58.266 89.3904 58.0843 88.8417C57.9482 88.0124 57.9714 87.1625 58.1524 86.3428C58.3057 85.3576 58.567 84.024 58.6408 83.4113C58.885 81.537 59.1689 81.2367 59.7766 81.4529C60.6171 81.7413 59.4302 86.7212 60.1173 86.8293C60.4921 86.8834 60.9408 85.1774 61.0771 83.7777C61.2134 82.378 61.804 78.0769 62.2412 77.7705C62.883 77.35 63.4395 78.0168 63.2805 79.4105C63.1215 80.8042 62.9113 85.0272 63.6098 85.0813C64.3084 85.1353 64.8763 77.9988 64.8763 77.9988C64.8763 77.9988 64.7683 76.449 65.5748 76.485C67.0342 76.5511 65.8985 84.0781 65.7735 84.7929C65.6827 85.2855 66.4436 85.3936 66.5118 84.841C66.5799 84.2883 66.932 77.6984 68.4142 77.7525C69.55 77.7946 67.534 83.9519 68.1757 85.3816C68.8174 86.8113 69.2604 80.5338 70.3507 80.6179C70.7539 80.654 71.0549 80.7381 70.311 84.2883C69.5849 87.1114 68.7148 89.8908 67.7043 92.6142C66.0007 102.466 58.3966 133.98 46.5163 128.213C39.872 124.987 36.7656 108.99 36.7656 108.99L42.5524 108.918Z" fill="#FFBE9D"/>
<path d="M67.7169 92.6687C67.7266 92.5943 67.7457 92.5216 67.7736 92.4525C67.8248 92.2963 67.8872 92.092 67.9724 91.8517C68.1598 91.2811 68.4154 90.4881 68.7504 89.4489C69.0855 88.4096 69.4887 87.1481 69.8862 85.6583C70.0906 84.9195 70.261 84.1145 70.4143 83.2555C70.4938 82.823 70.5677 82.3784 70.6188 81.9219C70.6329 81.6959 70.6329 81.4691 70.6188 81.2431C70.6188 81.0088 70.5677 80.8166 70.3916 80.8106C70.2156 80.8046 70.0906 80.9187 69.9657 81.1169C69.8526 81.329 69.7594 81.5524 69.6874 81.7837C69.5284 82.2583 69.4035 82.7629 69.2786 83.2735C69.1536 83.7841 69.04 84.3188 68.8924 84.8594C68.828 85.1556 68.7125 85.4366 68.5517 85.6884C68.5112 85.7377 68.4579 85.7732 68.3983 85.7905C68.3608 85.7992 68.322 85.7989 68.2846 85.7895C68.2472 85.7802 68.2123 85.762 68.1825 85.7364C68.1173 85.6731 68.0634 85.5978 68.0235 85.5142C67.9635 85.3666 67.9234 85.2109 67.9043 85.0516C67.8784 83.84 67.9928 82.6295 68.245 81.4473C68.3415 80.8466 68.4438 80.2459 68.5176 79.6452C68.5517 79.3388 68.5857 79.0445 68.5914 78.7201C68.5971 78.3957 68.5517 78.0533 68.4324 77.9992C68.3131 77.9451 68.0235 78.1133 67.8645 78.3656C67.7075 78.6321 67.5835 78.9188 67.4954 79.2187C67.3017 79.8462 67.1555 80.489 67.0581 81.141C66.9502 81.8017 66.865 82.4745 66.7912 83.1594C66.7628 83.5018 66.7287 83.8442 66.7003 84.1926L66.6549 84.7152C66.661 84.8268 66.6438 84.9385 66.6045 85.0423C66.5652 85.1461 66.5049 85.2395 66.4277 85.3159C66.3305 85.3911 66.2131 85.4316 66.0927 85.4316C65.9722 85.4316 65.8549 85.3911 65.7576 85.3159C65.7026 85.2775 65.6558 85.227 65.6206 85.168C65.5854 85.109 65.5624 85.0427 65.5532 84.9735C65.5446 84.9098 65.5446 84.8451 65.5532 84.7813V84.6551L65.7065 83.6039C65.8031 82.895 65.8826 82.1862 65.945 81.4653C66.0075 80.7445 66.0586 80.0176 66.07 79.2907C66.1032 78.5711 66.0343 77.8502 65.8655 77.1522C65.8264 76.9751 65.7248 76.8204 65.5816 76.7197C65.5131 76.6964 65.4394 76.6966 65.3711 76.7204C65.3027 76.7441 65.2432 76.7901 65.2011 76.8518C65.0172 77.2074 64.9418 77.6145 64.9853 78.0172C64.8604 79.4289 64.7184 80.8166 64.5253 82.1802C64.4288 82.859 64.3209 83.5378 64.1619 84.2046C64.1164 84.3668 64.071 84.535 64.0142 84.7032C63.9602 84.9071 63.847 85.0878 63.6905 85.2198C63.6213 85.2558 63.5427 85.2658 63.4674 85.2484C63.3921 85.2309 63.3246 85.187 63.2759 85.1237C63.2066 85.0467 63.1542 84.9544 63.1226 84.8534C63.0613 84.6867 63.0175 84.5135 62.992 84.3368C62.8589 83.0295 62.8475 81.7117 62.9579 80.4021C63.0418 79.7916 63.0742 79.1744 63.0545 78.5579C63.0361 78.2947 62.9221 78.0493 62.7365 77.8731C62.6928 77.8444 62.6442 77.8253 62.5934 77.8171C62.5427 77.8088 62.4909 77.8115 62.4411 77.825C62.388 77.8439 62.3367 77.8681 62.2878 77.8971C62.2367 77.9451 62.2424 77.8971 62.2083 77.9992C62.0029 78.5394 61.8525 79.1013 61.7597 79.6752C61.6461 80.2759 61.5496 80.8226 61.4644 81.3872C61.3792 81.9519 61.2997 82.5046 61.2315 83.0572C61.1634 83.6099 61.1293 84.1505 61.0271 84.6912C60.9388 85.2194 60.8058 85.7381 60.6296 86.241C60.5828 86.369 60.5278 86.4935 60.4649 86.6135C60.3854 86.7276 60.3399 86.8718 60.1241 86.9439C60.0689 86.9546 60.0119 86.9478 59.9604 86.9243C59.9088 86.9007 59.865 86.8616 59.8345 86.8117C59.7948 86.7424 59.7642 86.6676 59.7437 86.5895C59.7181 86.4589 59.7029 86.3262 59.6982 86.193C59.6982 85.1658 59.8288 84.2286 59.88 83.3216C59.917 82.8879 59.917 82.4516 59.88 82.018C59.88 81.8258 59.7948 81.5975 59.6926 81.5555C59.621 81.5183 59.5423 81.499 59.4626 81.499C59.3828 81.499 59.3042 81.5183 59.2326 81.5555C58.9942 81.8262 58.8465 82.1724 58.8123 82.5406C58.7271 82.9071 58.6931 83.2795 58.6306 83.6339C58.3921 85.0516 58.1422 86.2771 58.0229 87.2743C57.967 87.7128 57.967 88.1573 58.0229 88.5958C58.1025 88.9563 58.2217 89.2807 58.2842 89.533C58.3467 89.7853 58.4091 89.9655 58.4489 90.1337C58.47 90.1981 58.4852 90.2645 58.4943 90.3319C58.4603 90.2738 58.4335 90.2112 58.4148 90.1457L58.2217 89.545C58.1422 89.2867 58.023 88.9983 57.9264 88.6019C57.8657 88.1516 57.8657 87.6945 57.9264 87.2442C58.0343 86.229 58.2615 85.0156 58.4943 83.5919C58.5568 83.2375 58.5908 82.865 58.6647 82.4806C58.7053 82.2775 58.7565 82.077 58.818 81.8798C58.8748 81.6613 58.9986 81.469 59.1701 81.3332C59.2733 81.2753 59.3883 81.2451 59.5051 81.2451C59.622 81.2451 59.737 81.2753 59.8402 81.3332C59.9512 81.4072 60.0425 81.5102 60.1051 81.6322C60.1677 81.7542 60.1997 81.8912 60.198 82.03C60.2378 82.4816 60.2378 82.9361 60.198 83.3876C60.1582 84.3007 60.0219 85.2559 60.0446 86.229C60.0488 86.3441 60.0621 86.4587 60.0844 86.5714C60.0844 86.6856 60.1639 86.7336 60.1525 86.7096C60.1412 86.6856 60.2604 86.6135 60.3059 86.5174C60.3619 86.4108 60.4112 86.3004 60.4535 86.187C60.6217 85.7 60.7453 85.1971 60.8227 84.6852C60.9192 84.1626 60.9533 83.6219 61.0214 83.0632C61.0896 82.5046 61.1577 81.9519 61.2429 81.3812C61.3281 80.8106 61.4246 80.2399 61.5325 79.6572C61.6249 79.0486 61.785 78.4538 62.0095 77.8851C62.0549 77.7897 62.1235 77.7088 62.2083 77.6508C62.2838 77.607 62.3638 77.5727 62.4468 77.5487C62.5421 77.5199 62.642 77.513 62.74 77.5286C62.838 77.5441 62.9317 77.5817 63.0147 77.6388C63.1465 77.7495 63.2553 77.8876 63.3345 78.0447C63.4136 78.2018 63.4613 78.3744 63.4747 78.5519C63.5173 78.8787 63.5173 79.2102 63.4747 79.537C63.4463 79.8434 63.4179 80.1378 63.4009 80.4742C63.2902 81.7537 63.3016 83.0417 63.435 84.3187C63.4593 84.4704 63.4973 84.6193 63.5485 84.7633C63.5656 84.8214 63.5947 84.8748 63.6337 84.9195C63.6337 84.9195 63.6337 84.9195 63.6621 84.9195C63.6621 85.0576 63.6621 84.9195 63.6621 84.9735C63.6621 85.0276 63.6621 84.9735 63.6621 84.9255C63.733 84.8251 63.7885 84.7136 63.8268 84.5951C63.8798 84.4469 63.9252 84.2907 63.9631 84.1265C64.1164 83.4898 64.2186 82.817 64.3152 82.1442C64.5083 80.7925 64.6502 79.4049 64.7695 77.9992V78.0292C64.719 77.5341 64.8206 77.0349 65.0591 76.6055C65.1502 76.4828 65.2752 76.3932 65.4166 76.349C65.5581 76.3049 65.709 76.3085 65.8485 76.3592C65.9676 76.4292 66.0722 76.5237 66.1561 76.6372C66.24 76.7507 66.3015 76.8809 66.3369 77.02C66.5187 77.7587 66.5934 78.5223 66.5584 79.2847C66.5584 80.0296 66.4959 80.7625 66.4334 81.4894C66.371 82.2162 66.2858 82.9311 66.1892 83.6399C66.1381 84.0004 66.087 84.3488 66.0359 84.7032C65.9905 84.9255 66.0018 84.9315 66.0359 84.9976C66.0753 85.0257 66.1218 85.0407 66.1694 85.0407C66.2169 85.0407 66.2634 85.0257 66.3028 84.9976C66.371 84.9435 66.3823 84.8414 66.3993 84.6431L66.4391 84.1205L66.5413 83.0813C66.6095 82.3965 66.7003 81.7116 66.8082 81.0448C66.9133 80.3751 67.0652 79.7145 67.2625 79.0685C67.3657 78.742 67.5048 78.4294 67.6771 78.1374C67.7709 77.9799 67.8947 77.8449 68.0406 77.7409C68.1215 77.6789 68.2153 77.6384 68.3141 77.6227C68.413 77.607 68.5139 77.6167 68.6084 77.6508C68.6954 77.7076 68.7689 77.7848 68.8231 77.8765C68.8772 77.9682 68.9107 78.0718 68.9208 78.1794C68.9442 78.3484 68.9537 78.5193 68.9492 78.69C68.9492 79.0204 68.9094 79.3388 68.8754 79.6572C68.7958 80.2579 68.688 80.8947 68.5857 81.5014C68.3418 82.6425 68.2236 83.8097 68.2336 84.9795C68.2496 85.1052 68.2802 85.2282 68.3245 85.346C68.3451 85.3886 68.3698 85.4289 68.3983 85.4661C68.3983 85.4661 68.3983 85.4661 68.3983 85.4241C68.5258 85.2069 68.6198 84.9697 68.6766 84.7212C68.8242 84.1986 68.9435 83.67 69.0741 83.1534C69.1912 82.6393 69.3334 82.132 69.5 81.6335C69.5787 81.3866 69.6815 81.1491 69.8067 80.9247C69.8744 80.8024 69.963 80.6945 70.0679 80.6063C70.125 80.5539 70.1932 80.5168 70.2667 80.4982C70.3401 80.486 70.4148 80.486 70.4882 80.4982C70.5657 80.5064 70.6397 80.5363 70.7026 80.5849C70.7655 80.6335 70.815 80.6989 70.8459 80.7745C70.8934 80.9008 70.9184 81.0352 70.9198 81.171C70.9242 81.414 70.9109 81.657 70.88 81.8979C70.8289 82.3664 70.7437 82.8109 70.6642 83.2495C70.4995 84.1085 70.3178 84.9255 70.0963 85.6523C69.6704 87.1421 69.2445 88.4036 68.8981 89.4309C68.5517 90.4581 68.2564 91.233 68.0576 91.7857C67.961 92.038 67.8815 92.2362 67.8248 92.3864C67.7993 92.4846 67.7631 92.5794 67.7169 92.6687Z" fill="#EB996E"/>
<path d="M36.7148 109.597C37.7938 113.628 39.9064 119.846 42.1723 126.417C42.2437 126.629 42.3729 126.814 42.5436 126.948C42.7143 127.082 42.9187 127.159 43.131 127.17C43.3432 127.181 43.5538 127.125 43.7359 127.009C43.9181 126.893 44.0637 126.723 44.1542 126.52L49.7082 114.091C49.7082 114.091 48.368 103.879 48.4816 104.245C48.5951 104.611 37.0215 105.567 37.0215 105.567L36.7148 109.597Z" fill="#355576"/>
<path d="M49.2313 107.596C49.2313 107.644 48.5384 107.86 47.4424 108.305C46.01 108.88 44.63 109.592 43.3195 110.431C42.0108 111.275 40.7755 112.24 39.6282 113.315C38.748 114.138 38.2426 114.702 38.2085 114.666C38.1744 114.63 38.305 114.498 38.5208 114.228C38.8251 113.852 39.1473 113.493 39.4863 113.153C40.6057 112.012 41.8397 111.005 43.1662 110.149C44.4931 109.303 45.902 108.61 47.3686 108.083C47.8119 107.921 48.2631 107.785 48.7202 107.674C48.8855 107.619 49.0581 107.593 49.2313 107.596Z" fill="#FAFAFA"/>
<path d="M51.4357 110.696C51.0748 110.311 50.7618 109.879 50.5043 109.41C49.8411 108.316 49.271 107.162 48.8007 105.962C48.33 104.758 47.9632 103.511 47.7046 102.238C47.5723 101.716 47.5054 101.179 47.5059 100.64C47.6752 101.143 47.81 101.659 47.9091 102.183C48.2133 103.427 48.5927 104.649 49.0448 105.842C49.5173 107.028 50.0597 108.182 50.669 109.296C50.9526 109.745 51.2087 110.212 51.4357 110.696Z" fill="#263238"/>
<path d="M55.1367 55.6575C54.1733 57.3372 53.576 59.223 53.3884 61.1777C53.2007 63.1324 53.4275 65.1067 54.0521 66.957C54.6199 68.6089 55.5286 70.2369 55.3639 71.991C55.1992 73.7451 53.9044 75.4812 54.3587 77.2112C54.6313 78.2384 55.4604 79.0134 55.7841 80.0106C56.1533 81.212 55.7841 82.4795 55.5854 83.711C55.1311 86.8587 56.0851 90.0245 56.3179 93.1963C56.5508 96.3681 55.7501 100.087 53.0696 101.468C52.2575 101.889 51.1956 102.009 50.5198 101.366C49.6566 100.555 49.8951 99.0893 50.1336 97.8879C52.4847 85.8736 45.2214 74.1476 46.8796 61.989C47.1465 60.0427 48.1744 56.7388 49.4976 55.3812C50.8208 54.0235 54.495 54.1797 55.7444 55.6214" fill="#263238"/>
<path d="M43.9473 90.5116C43.9473 90.5116 44.2937 90.0791 44.8048 89.2261C45.522 88.0214 46.0244 86.6878 46.287 85.2914C46.4583 84.3295 46.5174 83.349 46.463 82.3719C46.3637 81.2358 46.3239 80.0947 46.3438 78.9538C46.3776 78.3291 46.4864 77.7114 46.6675 77.1156C46.875 76.5019 47.1374 75.9105 47.4512 75.3495C48.0872 74.2142 48.8879 73.1569 49.6262 72.0276C50.3843 70.9602 50.9116 69.7298 51.1708 68.4233C51.2967 67.1926 51.2296 65.9484 50.9721 64.7409C50.7572 63.6186 50.6733 62.4727 50.7222 61.3288C50.7898 60.3296 50.9807 59.3441 51.2901 58.3973C51.7239 57.0235 52.4068 55.7523 53.3004 54.6548C53.5378 54.3565 53.796 54.0774 54.0728 53.8198C54.1605 53.7209 54.2597 53.6341 54.3681 53.5615C54.3681 53.5615 53.9876 53.952 53.3856 54.763C51.9519 56.6455 51.1136 58.957 50.9891 61.3708C50.9511 62.496 51.0446 63.6219 51.2674 64.7228C51.5383 65.9628 51.6112 67.242 51.4832 68.5074C51.214 69.8504 50.6714 71.1152 49.8931 72.2138C49.1492 73.3612 48.3484 74.4124 47.7237 75.5177C47.4165 76.0579 47.1615 76.6295 46.9628 77.2238C46.7831 77.7952 46.6743 78.3888 46.6391 78.9899C46.6139 80.1181 46.6443 81.247 46.7299 82.3719C46.775 83.3687 46.7025 84.3676 46.5141 85.3455C46.2296 86.7609 45.6897 88.105 44.924 89.3042C44.7167 89.6284 44.4891 89.9374 44.2426 90.2293C44.1542 90.3346 44.0552 90.4292 43.9473 90.5116Z" fill="#355576"/>
<path d="M38.5645 91.4065C38.6102 91.2664 38.6692 91.1316 38.7405 91.004C38.8825 90.7217 39.0642 90.3492 39.3084 89.8807C39.7854 88.9015 40.4953 87.4778 41.1938 85.6756C42.0482 83.5708 42.5221 81.3152 42.5908 79.0257C42.5911 78.366 42.5437 77.7073 42.4488 77.0553C42.3523 76.3825 42.2046 75.7037 42.1081 74.9949C41.99 74.2617 42.0054 73.5113 42.1535 72.7842C42.3456 72.0377 42.7405 71.3673 43.2893 70.8559C44.3569 69.8287 45.6461 69.1559 46.3162 67.9485C46.8967 66.7512 47.2389 65.4406 47.3213 64.0979C47.4415 62.8669 47.7047 61.6564 48.105 60.4936C49.0052 57.9973 50.609 55.854 52.6993 54.3542C53.0325 54.117 53.3796 53.9023 53.7385 53.7115C53.8597 53.6347 53.9894 53.5742 54.1247 53.5312C54.1247 53.5313 53.6136 53.8196 52.7674 54.4564C51.5748 55.3566 50.5423 56.4732 49.7178 57.7543C49.1461 58.6325 48.6805 59.583 48.3322 60.5837C47.9495 61.7492 47.7016 62.9594 47.5939 64.188C47.4236 65.4675 47.2873 66.8972 46.5604 68.1647C45.8335 69.4322 44.5046 70.1531 43.4881 71.1683C42.97 71.6438 42.5966 72.2709 42.4148 72.9705C42.2767 73.6584 42.2632 74.3677 42.375 75.061C42.4659 75.7518 42.6078 76.4366 42.7044 77.1154C42.8026 77.7831 42.8482 78.4582 42.8407 79.1338C42.7635 81.4653 42.2642 83.7594 41.3698 85.8919C40.7889 87.333 40.129 88.7371 39.3936 90.0969L38.7916 91.04C38.7283 91.1703 38.6522 91.2932 38.5645 91.4065Z" fill="#355576"/>
<path d="M171.827 76.9488C171.827 76.9488 171.674 76.9488 171.379 76.9488C170.947 76.9217 170.515 76.9217 170.084 76.9488C168.416 77.052 166.777 77.4585 165.24 78.1502C162.803 79.2308 160.682 80.9788 159.095 83.2142C158.117 84.6101 157.389 86.184 156.948 87.8578C155.955 91.8448 156.491 96.0859 158.442 99.6559C158.974 100.644 159.623 101.557 160.373 102.371C161.13 103.234 162.011 103.964 162.985 104.534C163.984 105.128 165.116 105.429 166.262 105.405C167.444 105.39 168.577 104.905 169.436 104.047C169.852 103.587 170.178 103.044 170.395 102.45C170.612 101.857 170.717 101.223 170.703 100.587C170.694 99.2647 170.297 97.9779 169.567 96.9046C168.096 94.712 165.711 93.2402 163.173 92.4472C160.54 91.6652 157.761 91.6238 155.108 92.3271C153.755 92.6996 152.45 93.2485 151.224 93.9611C149.986 94.6998 148.862 95.6336 147.891 96.7304C147.658 97.0127 147.391 97.271 147.181 97.5834L146.539 98.4965C146.149 99.1399 145.8 99.8102 145.494 100.503C144.887 101.909 144.472 103.4 144.262 104.93C143.85 107.987 144.243 111.105 145.398 113.941C146.502 116.712 148.424 119.03 150.878 120.549C152.067 121.268 153.395 121.693 154.762 121.792C156.102 121.872 157.435 121.533 158.595 120.819C159.747 120.146 160.657 119.09 161.185 117.816C161.683 116.559 161.717 115.151 161.281 113.869C160.833 112.632 160.099 111.533 159.146 110.673C158.222 109.828 157.157 109.174 156.006 108.745C153.76 107.996 151.357 107.952 149.089 108.619C146.966 109.227 145.016 110.376 143.41 111.965C141.947 113.447 140.832 115.272 140.156 117.293C138.973 120.799 139.027 124.639 140.309 128.106C141.309 130.694 142.918 132.969 144.983 134.714C146.284 135.817 147.733 136.71 149.282 137.363C149.816 137.573 150.23 137.729 150.514 137.813L150.934 137.958C150.934 137.958 150.787 137.928 150.503 137.843C150.083 137.725 149.67 137.582 149.265 137.417C147.695 136.793 146.228 135.913 144.915 134.81C142.815 133.066 141.174 130.78 140.15 128.172C138.846 124.672 138.779 120.792 139.963 117.245C140.64 115.194 141.767 113.341 143.251 111.838C144.88 110.218 146.859 109.042 149.015 108.414C151.331 107.731 153.785 107.772 156.08 108.534C157.265 108.972 158.361 109.642 159.311 110.511C160.301 111.399 161.063 112.538 161.526 113.821C161.993 115.16 161.972 116.635 161.469 117.96C160.909 119.285 159.958 120.383 158.76 121.089C157.557 121.831 156.176 122.186 154.785 122.111C153.385 122.007 152.025 121.568 150.81 120.825C148.3 119.285 146.329 116.927 145.193 114.103C144.013 111.215 143.609 108.039 144.023 104.924C144.24 103.363 144.665 101.842 145.284 100.407C145.596 99.6994 145.953 99.015 146.352 98.3583L147.01 97.4272C147.22 97.1088 147.493 96.8265 147.732 96.5501C148.726 95.4326 149.875 94.4807 151.139 93.7268C152.393 93.0006 153.729 92.4436 155.114 92.0688C157.817 91.3524 160.65 91.3958 163.332 92.1949C165.921 93.0119 168.346 94.5077 169.874 96.7784C170.641 97.8965 171.059 99.2411 171.066 100.623C171.094 101.983 170.61 103.299 169.72 104.281C168.812 105.184 167.616 105.692 166.37 105.705C165.177 105.734 164 105.42 162.962 104.798C161.966 104.216 161.064 103.468 160.293 102.581C159.533 101.749 158.875 100.818 158.334 99.812C156.349 96.1758 155.809 91.8544 156.835 87.7977C157.289 86.1046 158.034 84.5142 159.033 83.1061C160.648 80.8537 162.806 79.1008 165.279 78.03C166.83 77.3517 168.481 76.9693 170.158 76.9007C170.593 76.8703 171.029 76.8703 171.464 76.9007L171.827 76.9488Z" fill="#263238"/>
<path d="M190.788 137.059H111.164V202.02H190.788V137.059Z" fill="#355576"/>
<path d="M111.164 137.059L125.872 151.572H204.145L190.788 137.059H111.164Z" fill="#355576"/>
<path d="M111.164 137.056L190.811 136.906H190.873L190.919 136.948L204.139 151.311L204.276 151.462L204.52 151.726H204.168L125.895 151.66H125.861L111.164 137.056L125.929 151.474H125.867L204.139 151.414L204.037 151.678L203.895 151.528L190.68 137.165L190.782 137.213L111.164 137.056Z" fill="#263238"/>
<path d="M135.085 167.014C134.654 167.03 134.246 167.225 133.949 167.557C133.652 167.888 133.491 168.33 133.498 168.786C133.506 169.243 133.683 169.678 133.991 169.998C134.299 170.317 134.713 170.497 135.145 170.497C135.577 170.497 135.991 170.317 136.299 169.998C136.607 169.678 136.784 169.243 136.792 168.786C136.799 168.33 136.637 167.888 136.341 167.557C136.044 167.225 135.636 167.03 135.205 167.014" fill="#263238"/>
<path d="M153.897 167.014C153.468 167.031 153.062 167.226 152.766 167.556C152.471 167.887 152.31 168.327 152.319 168.782C152.327 169.236 152.503 169.669 152.81 169.988C153.117 170.306 153.53 170.485 153.96 170.485C154.389 170.485 154.802 170.306 155.109 169.988C155.416 169.669 155.592 169.236 155.6 168.782C155.609 168.327 155.448 167.887 155.153 167.556C154.858 167.226 154.452 167.031 154.022 167.014" fill="#263238"/>
<path d="M154.006 182.561C153.677 181.234 153.144 179.973 152.427 178.83C151.629 177.608 150.605 176.569 149.417 175.778C147.983 174.772 146.311 174.212 144.591 174.162C142.871 174.112 141.173 174.574 139.689 175.496C138.464 176.22 137.388 177.196 136.526 178.368C135.749 179.468 135.152 180.699 134.76 182.008C134.764 181.91 134.779 181.813 134.805 181.72C134.86 181.449 134.93 181.182 135.015 180.921C135.326 179.956 135.781 179.049 136.361 178.235C137.217 177.009 138.306 175.986 139.558 175.232C141.08 174.271 142.829 173.788 144.601 173.839C146.373 173.89 148.094 174.473 149.565 175.52C150.774 176.342 151.807 177.422 152.597 178.692C153.137 179.539 153.545 180.472 153.807 181.455C153.877 181.722 153.932 181.993 153.972 182.266C153.991 182.363 154.003 182.462 154.006 182.561Z" fill="#263238"/>
<path opacity="0.5" d="M111.346 137.771L125.429 156.657H190.788V151.569H125.872L111.346 137.771Z" fill="black"/>
<path d="M175.087 201.873C175.008 201.873 174.939 190.574 174.939 176.643C174.939 162.713 175.008 151.413 175.087 151.413C175.167 151.413 175.24 162.707 175.24 176.643C175.24 190.58 175.172 201.873 175.087 201.873Z" fill="#263238"/>
<path d="M187.591 187.145H180.572V195.537H187.591V187.145Z" fill="#F5F5F5"/>
<path d="M111.164 137.059L94.8203 151.572H111.164V137.059Z" fill="#355576"/>
<g opacity="0.4">
<path d="M111.164 137.058L94.8203 151.571H111.164V137.058Z" fill="black"/>
</g>
<path d="M193.138 202.018H101.588V276.711H193.138V202.018Z" fill="#355576"/>
<path opacity="0.3" d="M193.138 202.018H101.588V276.711H193.138V202.018Z" fill="black"/>
<path d="M170.202 276.182C170.123 276.182 170.055 259.536 170.055 239.004C170.055 218.471 170.123 201.819 170.202 201.819C170.282 201.819 170.35 218.465 170.35 239.004C170.35 259.542 170.282 276.182 170.202 276.182Z" fill="#263238"/>
<path d="M185.377 259.711H178.357V268.103H185.377V259.711Z" fill="#F5F5F5"/>
<path d="M139.916 202.217H129.518V218.154H139.916V202.217Z" fill="#263238"/>
<path d="M139.916 260.551H129.518V276.488H139.916V260.551Z" fill="#263238"/>
<path d="M192.343 202.018H192.104H191.417L188.776 202.048L179.048 202.096L146.968 202.174L114.877 202.132L105.154 202.084L102.514 202.054L105.154 202.024L114.877 201.976L146.968 201.928L179.048 201.976L188.776 202.024L191.417 202.054H192.104L192.343 202.018Z" fill="#263238"/>
<path d="M35.4496 72.7019L25.4775 70.1068H25.5513C22.9764 71.8393 19.9989 72.7853 16.9477 72.8401C15.1414 72.8488 13.3439 72.5714 11.6152 72.0171C8.57596 70.9848 5.87958 69.0537 3.84477 66.4521C1.80996 63.8504 0.521779 60.687 0.13247 57.3356C-0.173293 54.8009 0.0517962 52.2262 0.791778 49.7938C1.53176 47.3614 2.76852 45.1311 4.41437 43.2608C5.27955 42.2555 6.24921 41.3568 7.30494 40.5816C7.83876 40.2272 8.37257 39.8607 8.92911 39.5543L9.77526 39.1218L10.1955 38.9056L10.6385 38.7374C12.9188 37.8024 15.365 37.4066 17.8052 37.578C21.0757 37.8026 24.2101 39.0463 26.8134 41.1523C29.4168 43.2582 31.3725 46.1323 32.4341 49.4121C33.0239 51.2469 33.3345 53.1691 33.3541 55.1069C33.3683 58.3274 32.5409 61.4894 30.9633 64.2438V64.1477C33.7346 69.44 35.1316 72.1132 35.444 72.7019C35.1203 72.1012 33.6721 69.4761 30.8043 64.2378V64.1898V64.1417C32.3253 61.414 33.1109 58.2976 33.0758 55.1309C33.0495 53.2241 32.7351 51.334 32.1445 49.5323C31.0944 46.3195 29.1716 43.5058 26.617 41.4435C24.0623 39.3812 20.9892 38.162 17.7825 37.9384C15.3903 37.7735 12.9929 38.163 10.7577 39.0798L10.3261 39.242L9.91156 39.4582L9.08244 39.8787C8.51455 40.1851 8.0148 40.5395 7.48666 40.8879C6.45131 41.6424 5.49891 42.5168 4.64721 43.4951C3.03145 45.3311 1.81699 47.5204 1.0898 49.908C0.362615 52.2956 0.140484 54.8231 0.439131 57.3115C0.965625 61.8705 3.1768 66.0237 6.58939 68.8633C8.11508 70.1421 9.84654 71.1189 11.7004 71.7468C13.3981 72.3019 15.1651 72.5834 16.9421 72.5818C19.9567 72.5476 22.9041 71.6352 25.4604 69.9446H25.4945H25.557L35.4496 72.7019Z" fill="#263238"/>
<path d="M15.3327 47.3684L15.8381 56.199C15.8583 56.5473 15.9982 56.8757 16.2315 57.1225C16.4647 57.3692 16.7752 57.5172 17.1045 57.5386C17.451 57.5593 17.7918 57.4388 18.0569 57.202C18.322 56.9651 18.4913 56.6298 18.5299 56.2651L19.4556 47.4165C19.4717 47.2582 19.4558 47.0981 19.409 46.9467C19.3622 46.7954 19.2855 46.6563 19.184 46.5388C19.0825 46.4212 18.9585 46.3278 18.8203 46.2647C18.6821 46.2016 18.5328 46.1704 18.3823 46.173H16.3549C16.2126 46.1775 16.0727 46.2123 15.9435 46.2755C15.8143 46.3386 15.6985 46.4287 15.603 46.5403C15.5075 46.652 15.4344 46.7829 15.3879 46.9252C15.3415 47.0675 15.3227 47.2183 15.3327 47.3684Z" fill="#355576"/>
<path d="M19.3075 62.473C19.1805 62.8764 18.9432 63.2309 18.6257 63.4917C18.3082 63.7525 17.9248 63.9079 17.5239 63.9382C17.1229 63.9686 16.7225 63.8725 16.3731 63.6622C16.0238 63.4519 15.7412 63.1367 15.5611 62.7566C15.3811 62.3765 15.3116 61.9484 15.3614 61.5265C15.4112 61.1046 15.5782 60.7077 15.8412 60.3862C16.1041 60.0646 16.4513 59.8327 16.8389 59.7198C17.2264 59.6069 17.6369 59.618 18.0184 59.7518C18.2721 59.8407 18.5067 59.9817 18.7088 60.1667C18.911 60.3516 19.0766 60.5769 19.1964 60.8297C19.3161 61.0824 19.3875 61.3577 19.4066 61.6397C19.4257 61.9216 19.392 62.2048 19.3075 62.473Z" fill="#355576"/>
</svg>
